<?xml version="1.0" encoding="utf-8"?>
<!-- Generator: Adobe Illustrator 25.2.0, SVG Export Plug-In . SVG Version: 6.00 Build 0)  -->
<svg version="1.1" id="Layer_1" xmlns="http://www.w3.org/2000/svg" xmlns:xlink="http://www.w3.org/1999/xlink" x="0px" y="0px"
	 viewBox="0 0 240.72 57.63" style="enable-background:new 0 0 240.72 57.63;" xml:space="preserve">
<style type="text/css">
	.st0{enable-background:new    ;}
	.st1{fill:#28311B;}
</style>
<g class="st0">
	<path class="st1" d="M33.49,5.72c0,2-1.4,4.2-4,4.2c-1.5,0-2.7-1-2.7-1.7c0-0.8,0.7-0.3,0.7-1.3s-0.9-1.7-2.7-1.7
		c-3.1,0-7.6,2.1-10.8,6.4l13.7,15.3c1.1,1.3,2,1.5,2.5,1.5c0.1,0,0.2,0,0.2,0c0.8,0,1.1,0.5,1.1,0.9c0,0.5-0.4,1.1-1.1,1.1h-11.6
		c-0.7,0-1.1-0.5-1.1-1c0-1.6,2.6-0.4,2.6-1.9c0-0.2-0.1-0.6-0.5-1l-9-10.2c-0.4,0.8-1,1.9-1.2,2.5v8c0,1.5,2.2,1.6,2.2,1.6
		c0.6,0,1,0.5,1,1s-0.3,1-1,1h-9.9c-0.6,0-1-0.5-1-1s0.3-0.9,1-0.9c0,0,2-0.1,2-1.6V5.02c0-1.4-2-1.4-2.1-1.4c-0.6,0-0.9-0.5-0.9-1
		s0.3-1,1-1h9.8c0.7,0,1,0.4,1,0.8c0,2.1-3.1,0.1-3.1,2.7v7.4c2-4.4,5.9-8.2,9.5-10.3c2.5-1.4,4.9-1.8,6.7-1.8c1.4,0,6.3,0,7.5,3.9
		C33.39,4.82,33.49,5.22,33.49,5.72z"/>
	<path class="st1" d="M49.09,23.62c0,2.7-2.3,7.3-9,7.3c-5.3,0-9.3-4.4-9.3-10.1c0-5.5,4.1-10,9.3-10c4.9,0,7.6,3.2,8.1,7.2l-11.4,5
		c0.2,3.2,1.9,4.8,4.4,4.8c2,0,3.7-1.3,3.7-2.8c0-0.4-0.3-0.8-0.7-0.8c-0.2,0-0.4,0.2-0.7,0.2c-0.2,0-0.5-0.2-0.5-0.8
		c0-1.3,1.1-3,3-3c0.9,0,1.9,0.4,2.5,1.3C48.99,22.52,49.09,23.02,49.09,23.62z M43.29,16.42c-0.4-1.8-1.8-2.5-2.8-2.5
		c-1.8,0-3.7,1.7-3.8,5.4L43.29,16.42z"/>
	<path class="st1" d="M82.29,12.32c0,0.5-0.3,1-1,1c0,0-0.1,0-0.3,0c-0.5,0-1.3,0.2-1.7,1.5c0,0-3.4,11.5-4.6,15.7h-5.8
		c-0.5-2.1-1.7-6.2-2.7-9.6c-1,3.4-2.2,7.5-2.8,9.6h-5.8c-1-4.1-4.5-15.7-4.5-15.7c-0.4-1.3-1.2-1.5-1.7-1.5c-0.2,0-0.3,0-0.3,0
		c-0.7,0-1-0.5-1-0.9c0-0.5,0.4-1,1-1h8.6c0.8,0,1,0.4,1,0.9c0,1.3-1.5,0.5-1.5,1.9c0,0.2,0,0.5,0.1,0.8l2.6,9.6
		c2.3-8.6,2.6-9.8,2.6-9.8v0.1c0-0.2,0.1-0.4,0.1-0.6c0-1.6-1.9-0.4-1.9-1.8c0-0.5,0.4-1,1-1h7.4c0.7,0,1,0.4,1,0.9s-0.4,1.1-1,1.1
		c0,0-0.5,0-0.5,0.8c0,0.2,0,0.5,0.1,0.8l2.6,9.6l2.6-9.6c0.1-0.3,0.1-0.6,0.1-0.8c0-1.5-1.5-0.5-1.5-1.9c0-0.4,0.3-0.8,1-0.8h5.9
		c0.6,0,0.9,0.4,1,0.8C82.29,12.22,82.29,12.32,82.29,12.32z"/>
	<path class="st1" d="M118.59,20.52c0,0-1.5-0.1-1.5,1.9v3.6c0,2.3-4.4,5.1-10.1,5c-7-0.1-13.1-7-13.1-15c0-7.9,6.1-14.8,12.2-15.1
		c4.9-0.3,6,1.9,6.9,1.5c0.2-0.1,0.3-0.4,0.2-0.9c-0.1-0.5,0.1-0.8,0.5-0.9c0.5-0.1,1.2,0.2,1.4,0.8l2.7,7.5c0.4,1-0.7,1.1-1.1,1.2
		c-0.5,0.1-1.5,0.1-1.9-0.6l-0.7-1.2c-1.5-2.6-3.9-3.8-6.3-3.8c-0.4,0-0.7,0-1,0.1c-4.7,0.7-7.3,5.7-7.3,11.3c0,5.8,3.2,11.7,8,11.8
		c3.4,0.1,4.4-1.8,4.4-3.4v-2c0-1.9-1.7-1.7-1.7-1.7c-1.1,0-1.5-0.4-1.5-0.9s0.4-0.9,0.8-0.9h9.2c0.5,0,0.9,0.4,1,0.8
		C119.79,19.92,119.59,20.42,118.59,20.52z"/>
	<path class="st1" d="M138.39,30.42h-5.2c-1.1,0-1.6-0.5-1.6-1.1h-0.4c-1.4,0.7-2.9,1.7-4.5,1.7c-2.8,0-5.8-1.7-5.8-4.8
		c0-4,4.2-5.7,7.3-7.2l3.2-1.5c-0.1-2.8-1.5-3.6-3.6-3.6c-2.2,0-3.3,1.1-3.3,2.3c0,0.5,0.2,0.9,0.7,0.9c0.1,0,0.3-0.1,0.5-0.1
		c0.1,0,0.2,0.3,0.2,0.4c0,1.2-1.5,2.2-2.7,2.2c-1.8,0-2.7-1.6-2.7-3.2c0-3.9,4.6-5.4,8.8-5.4c3.4,0,7.8,1.5,7.8,5.5v10.2
		c0,1,0.4,1.7,1.5,1.7c0.6,0,0.9,0.4,0.9,0.8C139.49,29.82,139.09,30.42,138.39,30.42z M131.39,19.82l-4.1,3.1
		c-0.9,0.6-1.4,1.3-1.4,1.9c0,1.3,1,1.9,2.2,1.9s3.3-1,3.3-1V19.82L131.39,19.82z"/>
	<path class="st1" d="M154.99,19.72c-1.8,0-2.8-1.5-2.8-2.3s0.3-1.6,0.9-1.9c0.1,0,0.1-0.1,0.1-0.1c0-0.4-1-1.2-2.6-1.2
		c-0.7,0-1.6,0.2-2.4,0.7h-0.1v11.9c0,1.5,1.5,1.6,1.5,1.6c0.6,0,0.9,0.5,0.9,1s-0.3,0.9-0.9,0.9h-8.6c-0.5,0-0.8-0.4-0.8-0.9
		s0.2-1,0.8-1c0,0,1.4-0.1,1.4-1.6v-12c0-1.5-1.3-1.5-1.3-1.5c-0.7,0-1-0.5-1-1s0.4-0.9,1-0.9h7v0.9c1-0.6,2.4-1.2,4.1-1.2
		c4.6,0,6,2.6,6,4.6C158.29,17.92,157.09,19.72,154.99,19.72z"/>
	<path class="st1" d="M179.39,5.52c0,0-1.3,0-1.3,1.5v20c0,1.4,1.4,1.6,1.4,1.6c0.5,0,0.8,0.4,0.8,0.8c0,0.5-0.3,1.1-0.8,1.1h-7.2
		v-1.2c-0.8,0.7-2.4,1.6-4.1,1.6c-5.1,0-8.3-4.7-8.3-10.1s2.7-9.8,7.8-9.8c1.7,0,3.3,0.5,4.6,1.3v-5.2c0-2.5-2.4-0.7-2.4-2.5
		c0-0.5,0.4-1,1-1h8.3c0.6,0,1,0.5,1,1S180.19,5.52,179.39,5.52z M169.49,13.82c-2.8,0-3.5,3-3.5,6.8c0,3.7,0.8,6.8,3.5,6.8
		c2.3,0,2.9-3.3,2.9-6.7C172.39,17.22,171.69,13.82,169.49,13.82z"/>
	<path class="st1" d="M199.69,23.62c0,2.7-2.3,7.3-9,7.3c-5.3,0-9.3-4.4-9.3-10.1c0-5.5,4.1-10,9.3-10c4.9,0,7.6,3.2,8.1,7.2
		l-11.4,5c0.2,3.2,1.9,4.8,4.4,4.8c2,0,3.7-1.3,3.7-2.8c0-0.4-0.3-0.8-0.7-0.8c-0.2,0-0.4,0.2-0.6,0.2c-0.2,0-0.5-0.2-0.5-0.8
		c0-1.3,1.1-3,3-3c0.9,0,1.9,0.4,2.4,1.3C199.59,22.52,199.69,23.02,199.69,23.62z M193.99,16.42c-0.4-1.8-1.8-2.5-2.8-2.5
		c-1.8,0-3.7,1.7-3.8,5.4L193.99,16.42z"/>
	<path class="st1" d="M221.99,30.42h-8.6c-0.6,0-0.9-0.5-0.9-1s0.2-0.9,0.9-0.9c0,0,1.4-0.1,1.4-1.6v-9.2c0-1.9-1.1-3.2-3.2-3.2
		c-1.5,0-2.3,0.6-3.2,1.4v10.9c0,1.5,1.5,1.6,1.5,1.6c0.5,0,0.9,0.4,0.9,0.9s-0.3,1-0.9,1h-8.6c-0.5,0-0.8-0.5-0.8-1
		s0.2-0.9,0.8-0.9c0,0,1.4-0.1,1.4-1.6v-12c0-1.5-1.3-1.5-1.3-1.5c-0.7,0-1-0.5-1-0.9c0-0.5,0.4-1,1-1h7v1.9c0.8-1,2.4-2.2,5.3-2.2
		c3.3,0,6.9,1.2,6.9,5.5v10.3c0,1.5,1.5,1.6,1.5,1.6c0.5,0,0.8,0.4,0.9,0.9C222.89,29.82,222.69,30.42,221.99,30.42z"/>
	<path class="st1" d="M231.19,30.82c-3.6,0-7.3-1.7-7.3-5.5c0-1.8,1.3-3.2,3-3.2s2.5,1.1,2.5,2.6c0,1.4-1.1,1.8-1.1,1.8
		c0.1,1.1,1.7,1.5,2.9,1.5c1.6,0,3.4-0.8,3.4-2.6c0-4.5-9.4-2.7-9.4-9.7c0-3.5,3.6-4.8,6.7-4.8c0.9,0,1.8,0.1,2.6,0.4
		c-0.1-0.1-0.1-0.2-0.1-0.3c0-0.5,0.9-0.5,1.3-0.5c0.5,0,1.3,0,1.5,0.6l1.5,4.2c0,0.1,0.1,0.2,0.1,0.4c0,0.7-0.9,1-1.7,1
		s-1.4-0.7-1.5-1.1c-0.7-0.8-2-1.8-3.7-1.8c-1,0-1.9,0.7-1.9,1.8c0,3.3,10,1.9,10,8.8C239.79,28.62,234.79,30.82,231.19,30.82z"/>
</g>
<g class="st0">
	<path class="st1" d="M14.79,52.42h-5.2c-0.3,0-0.6-0.2-0.6-0.5c0-0.2,0.2-0.5,0.6-0.5c0,0,0.7,0,0.7-0.5c0-0.1-0.1-0.3-0.2-0.5
		l-3.6-4.1h-0.6v4.2c0,0.7,1.1,0.8,1.1,0.8c0.3,0,0.5,0.2,0.5,0.5c0,0.2-0.1,0.5-0.5,0.5h-4.9c-0.3,0-0.5-0.2-0.5-0.5
		c0-0.2,0.1-0.5,0.5-0.5c0,0,0.9-0.1,0.9-0.8v-10.8c0-0.7-1-0.7-1-0.7c-0.4,0-0.5-0.2-0.5-0.5c0-0.2,0.2-0.5,0.5-0.5h7.3
		c1.9,0,3.7,1.5,3.7,4c0,2.3-1.4,4.4-3.4,4.4l3.8,4.3c0.8,0.9,1.4,0.7,1.4,0.7c0.4,0,0.6,0.2,0.5,0.5
		C15.39,52.12,15.19,52.42,14.79,52.42z M8.09,39.32h-1.2c-0.6,0-1,0.3-1,1v4.9h2c1.9,0,2.4-2,2.4-3.3
		C10.29,40.72,9.59,39.32,8.09,39.32z"/>
	<path class="st1" d="M19.49,52.72c-2.6,0-4.6-2.2-4.6-5s2-5,4.6-5s4.7,2.2,4.7,5S22.09,52.72,19.49,52.72z M19.49,44.32
		c-1.3,0-1.6,1.6-1.6,3.5c0,1.8,0.4,3.3,1.7,3.3c1.3,0,1.7-1.5,1.7-3.4C21.29,45.82,20.89,44.32,19.49,44.32z"/>
	<path class="st1" d="M35.89,43.82c0,0-0.6-0.2-1,0.7l-3.2,7.8c-0.4,1-0.9,2-1.5,2.9c-0.8,1-1.9,1.8-3.4,1.6
		c-1.1-0.1-2.1-0.7-2.3-1.9c-0.2-1.3,0.7-2,1.6-2s1.2,1,1,1.2c-0.1,0.1-0.2-0.1-0.5,0.1c-0.1,0.1-0.1,0.3,0,0.6
		c0.1,0.2,0.4,0.4,0.8,0.4c1.1,0,2.1-2,1.7-3l-3.1-7.8c-0.4-0.9-1-0.7-1-0.7c-0.4,0-0.5-0.3-0.5-0.5s0.2-0.5,0.5-0.5h4.3
		c0.4,0,0.5,0.2,0.5,0.5c0,0.2-0.2,0.5-0.5,0.5c0,0-0.5,0.1-0.2,0.8l2,4.8l2-4.8c0.4-0.6-0.2-0.7-0.2-0.7c-0.3,0-0.5-0.3-0.5-0.5
		s0.1-0.4,0.5-0.4h3c0.3,0,0.5,0.2,0.5,0.5C36.39,43.62,36.19,43.82,35.89,43.82z"/>
	<path class="st1" d="M45.69,52.42h-2.6c-0.6,0-0.8-0.2-0.8-0.5h-0.2c-0.7,0.3-1.4,0.8-2.2,0.8c-1.4,0-2.9-0.8-2.9-2.4
		c0-2,2.1-2.9,3.6-3.6l1.6-0.8c0-1.4-0.8-1.8-1.8-1.8c-1.1,0-1.6,0.5-1.6,1.1c0,0.2,0.1,0.4,0.3,0.4c0.1,0,0.1,0,0.2,0l0.1,0.2
		c0,0.6-0.8,1.1-1.3,1.1c-0.9,0-1.4-0.8-1.4-1.6c0-1.9,2.3-2.7,4.4-2.7c1.7,0,3.9,0.8,3.9,2.8v5.1c0,0.5,0.2,0.9,0.8,0.9
		c0.3,0,0.4,0.2,0.4,0.4C46.19,52.12,45.99,52.42,45.69,52.42z M42.09,47.12l-2.1,1.5c-0.4,0.3-0.7,0.7-0.7,1c0,0.7,0.5,0.9,1.1,0.9
		s1.7-0.5,1.7-0.5V47.12z"/>
	<path class="st1" d="M51.59,52.42h-4.3c-0.2,0-0.4-0.2-0.4-0.5c0-0.2,0.1-0.5,0.4-0.5c0,0,0.7-0.1,0.7-0.8v-10
		c0-0.7-0.7-0.7-0.7-0.7c-0.4,0-0.5-0.2-0.5-0.5c0-0.2,0.2-0.5,0.5-0.5h3.5v11.7c0,0.8,0.7,0.8,0.7,0.8c0.3,0,0.4,0.3,0.4,0.5
		C51.99,52.22,51.79,52.42,51.59,52.42z"/>
	<path class="st1" d="M65.09,52.42h-6.8c-0.3,0-0.5-0.3-0.5-0.5s0.2-0.4,0.5-0.4c0,0,0.9-0.1,0.9-0.8v-11c0-0.7-1-0.7-1-0.7
		c-0.3,0-0.5-0.2-0.5-0.5c0-0.2,0.2-0.5,0.5-0.5h6.3c2.1,0,3.6,0.8,3.6,3.2c0,2-0.9,2.9-2.1,3.1c1.2,0.1,3.1,1.6,3,3.8
		C69.09,50.12,67.69,52.42,65.09,52.42z M63.99,39.22h-1.5c-0.3,0-0.4,0.1-0.4,0.4v4.3h1.8c1.3,0,1.8-1.2,1.8-2.4
		C65.79,40.32,65.19,39.22,63.99,39.22z M63.99,45.32h-1.9v5.4c0,0.3,0.2,0.4,0.4,0.4h1.6c2,0,2.4-1.6,2.4-3.2
		C66.39,46.52,65.59,45.32,63.99,45.32z"/>
	<path class="st1" d="M74.49,52.72c-2.6,0-4.6-2.2-4.6-5s2-5,4.6-5s4.7,2.2,4.7,5S76.99,52.72,74.49,52.72z M74.49,44.32
		c-1.3,0-1.6,1.6-1.6,3.5c0,1.8,0.4,3.3,1.7,3.3c1.3,0,1.7-1.5,1.7-3.4C76.19,45.82,75.79,44.32,74.49,44.32z"/>
	<path class="st1" d="M85.49,51.62c-0.8,0.6-1.5,1-2.6,1c-0.8,0-2.2-0.5-2.2-2.1v-6.1h-0.4c-0.5,0-0.8-0.3-0.8-0.7
		c0-0.3,0.2-0.7,0.8-0.9c1.3-0.5,1.8-1.7,1.8-2.8c0-0.4,0.3-0.5,0.7-0.5c0.4,0,0.7,0.2,0.7,0.5v2.8h1.4c0.6,0,0.8,0.4,0.8,0.8
		c0,0.4-0.3,0.8-0.8,0.8h-1.4v6.1c0,0.5,0.4,0.7,0.7,0.7c0.5,0,0.9-0.4,0.9-0.4L85.49,51.62z"/>
	<path class="st1" d="M95.39,52.42h-2.6c-0.6,0-0.8-0.2-0.8-0.5h-0.2c-0.7,0.3-1.4,0.8-2.2,0.8c-1.4,0-2.9-0.8-2.9-2.4
		c0-2,2.1-2.9,3.6-3.6l1.6-0.8c0-1.4-0.8-1.8-1.8-1.8c-1.1,0-1.6,0.5-1.6,1.1c0,0.2,0.1,0.4,0.3,0.4c0.1,0,0.1,0,0.2,0
		s0.1,0.2,0.1,0.2c0,0.6-0.8,1.1-1.3,1.1c-0.9,0-1.4-0.8-1.4-1.6c0-1.9,2.3-2.7,4.4-2.7c1.7,0,3.9,0.8,3.9,2.8v5.1
		c0,0.5,0.2,0.9,0.8,0.9c0.3,0,0.4,0.2,0.4,0.4C95.89,52.12,95.69,52.42,95.39,52.42z M91.79,47.12l-2.1,1.5c-0.4,0.3-0.7,0.7-0.7,1
		c0,0.7,0.5,0.9,1.1,0.9s1.7-0.5,1.7-0.5V47.12z"/>
	<path class="st1" d="M107.19,52.42h-4.3c-0.3,0-0.4-0.2-0.4-0.5s0.1-0.5,0.4-0.5c0,0,0.7-0.1,0.7-0.8v-4.6c0-0.9-0.6-1.6-1.6-1.6
		c-0.8,0-1.2,0.3-1.6,0.7v5.5c0,0.8,0.7,0.8,0.7,0.8c0.3,0,0.4,0.2,0.4,0.5c0,0.2-0.1,0.5-0.4,0.5h-4.3c-0.3,0-0.4-0.2-0.4-0.5
		s0.1-0.5,0.4-0.5c0,0,0.7-0.1,0.7-0.8v-6.1c0.1-0.7-0.6-0.7-0.6-0.7c-0.3,0-0.5-0.2-0.5-0.5c0-0.2,0.2-0.5,0.5-0.5h3.5v1
		c0.4-0.5,1.2-1.1,2.6-1.1c1.6,0,3.4,0.6,3.4,2.8v5.2c0,0.8,0.7,0.8,0.7,0.8c0.3,0,0.4,0.2,0.4,0.4
		C107.69,52.12,107.59,52.42,107.19,52.42z"/>
	<path class="st1" d="M113.09,52.42h-4.3c-0.3,0-0.4-0.2-0.4-0.5c0-0.2,0.1-0.5,0.4-0.5c0,0,0.7-0.1,0.7-0.8v-6.1
		c0-0.7-0.7-0.7-0.7-0.7c-0.3,0-0.5-0.2-0.5-0.5c0-0.2,0.2-0.5,0.5-0.5h3.5v7.8c0,0.8,0.7,0.8,0.7,0.8c0.3,0,0.4,0.3,0.4,0.5
		C113.49,52.22,113.39,52.42,113.09,52.42z M110.79,41.92c-1,0-1.8-0.7-1.8-1.5s0.8-1.5,1.8-1.5s1.8,0.7,1.8,1.5
		S111.79,41.92,110.79,41.92z"/>
	<path class="st1" d="M123.09,49.82c-0.9,2.2-2.6,2.8-4.3,2.8c-1.8,0-4.7-1.3-4.7-5c0-3.6,2.8-5.2,4.6-5.2c1.9,0,3.8,1.2,3.8,3.2
		c0,0.9-0.7,2.3-2,2.3c-0.9,0-1.7-0.4-1.7-1.6c0-0.6,0.5-0.9,0.7-0.9s0.2,0.3,0.5,0.3c0.2,0,0.4-0.3,0.4-0.6c-0.1-1-0.9-1.3-1.6-1.3
		c-1.5,0.1-1.8,2-1.8,3.9c0,1.7,0.4,3.3,2.4,3.3c1.7,0,2.7-1.8,2.7-1.8L123.09,49.82z"/>
	<path class="st1" d="M141.29,47.42c0,0-0.8,0-0.8,0.9v1.8c0,1.2-2.2,2.6-5,2.5c-3.5,0-6.6-3.5-6.6-7.5c0-3.9,3.1-7.4,6.1-7.6
		c2.4-0.1,3,1,3.5,0.8c0.1,0,0.2-0.2,0.1-0.5c-0.1-0.3,0.1-0.4,0.3-0.5c0.2,0,0.6,0.1,0.7,0.4l1.3,3.8c0.2,0.5-0.3,0.6-0.5,0.6
		c-0.3,0-0.8,0-0.9-0.3l-0.3-0.6c-0.8-1.3-2-1.9-3.1-1.9c-0.2,0-0.4,0-0.5,0c-2.4,0.3-3.6,2.8-3.6,5.7s1.6,5.9,4,5.9
		c1.7,0,2.2-0.9,2.2-1.7v-1c0-1-0.9-0.8-0.9-0.8c-0.6,0-0.8-0.2-0.7-0.5c0-0.2,0.2-0.5,0.4-0.5h4.6c0.2,0,0.4,0.2,0.5,0.4
		C141.89,47.22,141.79,47.42,141.29,47.42z"/>
	<path class="st1" d="M151.19,52.42h-2.6c-0.6,0-0.8-0.2-0.8-0.5h-0.2c-0.7,0.3-1.4,0.8-2.2,0.8c-1.4,0-2.9-0.8-2.9-2.4
		c0-2,2.1-2.9,3.6-3.6l1.6-0.8c0-1.4-0.8-1.8-1.8-1.8c-1.1,0-1.6,0.5-1.6,1.1c0,0.2,0.1,0.4,0.3,0.4c0.1,0,0.1,0,0.2,0
		c0.1,0,0.1,0.2,0.1,0.2c0,0.6-0.8,1.1-1.4,1.1c-0.9,0-1.4-0.8-1.4-1.6c0-1.9,2.3-2.7,4.4-2.7c1.7,0,3.9,0.8,3.9,2.8v5.1
		c0,0.5,0.2,0.9,0.8,0.9c0.3,0,0.4,0.2,0.4,0.4C151.79,52.12,151.49,52.42,151.19,52.42z M147.69,47.12l-2.1,1.5
		c-0.4,0.3-0.7,0.7-0.7,1c0,0.7,0.5,0.9,1.1,0.9s1.7-0.5,1.7-0.5V47.12z"/>
	<path class="st1" d="M159.49,47.02c-0.9,0-1.4-0.8-1.4-1.1c0-0.4,0.2-0.8,0.5-1c0,0,0,0,0-0.1c0-0.2-0.5-0.6-1.3-0.6
		c-0.4,0-0.8,0.1-1.2,0.4l0,0v6c0,0.8,0.7,0.8,0.7,0.8c0.3,0,0.4,0.2,0.4,0.5c0,0.2-0.2,0.5-0.4,0.5h-4.3c-0.2,0-0.4-0.2-0.4-0.5
		s0.1-0.5,0.4-0.5c0,0,0.7-0.1,0.7-0.8v-6.1c0-0.7-0.6-0.7-0.6-0.7c-0.4,0-0.5-0.3-0.5-0.5s0.2-0.5,0.5-0.5h3.5v0.5
		c0.5-0.3,1.2-0.6,2-0.6c2.3,0,3,1.3,3,2.3C161.09,46.12,160.49,47.02,159.49,47.02z"/>
	<path class="st1" d="M171.69,39.92c0,0-0.6,0-0.6,0.7v10c0,0.7,0.7,0.8,0.7,0.8c0.2,0,0.4,0.2,0.4,0.4c0,0.3-0.1,0.5-0.4,0.5h-3.6
		v-0.6c-0.4,0.4-1.2,0.8-2.1,0.8c-2.6,0-4.1-2.3-4.1-5.1s1.3-4.9,3.9-4.9c0.9,0,1.6,0.2,2.3,0.7v-2.6c0-1.3-1.2-0.4-1.2-1.2
		c0-0.2,0.2-0.5,0.5-0.5h4.2c0.3,0,0.5,0.2,0.5,0.5S172.09,39.92,171.69,39.92z M166.69,44.12c-1.4,0-1.8,1.5-1.8,3.4
		s0.4,3.4,1.7,3.4c1.1,0,1.5-1.7,1.5-3.3C168.19,45.82,167.79,44.12,166.69,44.12z"/>
	<path class="st1" d="M181.79,49.02c0,1.3-1.1,3.7-4.5,3.7c-2.6,0-4.6-2.2-4.6-5s2.1-5,4.6-5s3.8,1.6,4.1,3.6l-5.7,2.5
		c0.1,1.6,1,2.4,2.2,2.4c1,0,1.9-0.7,1.9-1.4c0-0.2-0.1-0.4-0.4-0.4c-0.1,0-0.2,0.1-0.3,0.1s-0.2-0.1-0.2-0.4c0-0.6,0.5-1.5,1.5-1.5
		c0.5,0,0.9,0.2,1.2,0.6C181.79,48.42,181.79,48.72,181.79,49.02z M178.99,45.42c-0.2-0.9-0.9-1.3-1.4-1.3c-0.9,0-1.8,0.9-1.9,2.7
		L178.99,45.42z"/>
	<path class="st1" d="M192.99,52.42h-4.3c-0.3,0-0.4-0.2-0.4-0.5s0.1-0.5,0.4-0.5c0,0,0.7-0.1,0.7-0.8v-4.6c0-0.9-0.6-1.6-1.6-1.6
		c-0.8,0-1.2,0.3-1.6,0.7v5.5c0,0.8,0.7,0.8,0.7,0.8c0.3,0,0.4,0.2,0.4,0.5c0,0.2-0.1,0.5-0.4,0.5h-4.3c-0.3,0-0.4-0.2-0.4-0.5
		s0.1-0.5,0.4-0.5c0,0,0.7-0.1,0.7-0.8v-6.1c0-0.7-0.6-0.7-0.6-0.7c-0.3,0-0.5-0.2-0.5-0.5c0-0.2,0.2-0.5,0.5-0.5h3.5v1
		c0.4-0.5,1.2-1.1,2.6-1.1c1.6,0,3.4,0.6,3.4,2.8v5.2c0,0.8,0.7,0.8,0.7,0.8c0.3,0,0.4,0.2,0.4,0.4
		C193.49,52.12,193.29,52.42,192.99,52.42z"/>
	<path class="st1" d="M197.59,52.62c-1.8,0-3.7-0.8-3.7-2.8c0-0.9,0.6-1.6,1.5-1.6c0.8,0,1.3,0.6,1.3,1.3s-0.6,0.9-0.6,0.9
		c0.1,0.6,0.9,0.7,1.5,0.7c0.8,0,1.7-0.4,1.7-1.3c0-2.3-4.7-1.3-4.7-4.8c0-1.8,1.8-2.4,3.3-2.4c0.4,0,0.9,0,1.3,0.2v-0.1
		c0-0.3,0.4-0.3,0.6-0.3c0.3,0,0.6,0,0.7,0.3l0.7,2.1c0,0.1,0,0.1,0,0.2c0,0.3-0.5,0.5-0.9,0.5s-0.7-0.3-0.7-0.6
		c-0.4-0.4-1-0.9-1.9-0.9c-0.5,0-1,0.3-1,0.9c0,1.6,5,1,5,4.4C201.89,51.52,199.39,52.62,197.59,52.62z"/>
</g>
</svg>
