<?xml version="1.0" encoding="utf-8"?>
<!-- Generator: Adobe Illustrator 24.0.0, SVG Export Plug-In . SVG Version: 6.00 Build 0)  -->
<svg version="1.1" id="Layer_1" xmlns="http://www.w3.org/2000/svg" xmlns:xlink="http://www.w3.org/1999/xlink" x="0px" y="0px"
	 viewBox="0 0 397 305.3" style="enable-background:new 0 0 397 305.3;" xml:space="preserve">
<path d="M0,292.3c1.66-0.04,3.33-0.1,4.99-0.1c129.01,0,258.01,0,387.02,0c1.66,0,3.33,0.07,4.99,0.1c0,4,0,8,0,12
	c-1.83-0.06-3.66-0.17-5.48-0.17c-128.68-0.01-257.35-0.01-386.03,0c-1.83,0-3.66,0.11-5.48,0.17C0,300.3,0,296.3,0,292.3z
	 M4.5,305.26c70.33,0.05,140.67,0.04,211,0.04c59.17,0,118.33,0.01,177.5-0.04c1.33,0,2.67-0.62,4-0.96
	c-1.83-0.06-3.66-0.17-5.48-0.17c-128.68-0.01-257.35-0.01-386.03,0c-1.83,0-3.66,0.11-5.48,0.17C1.5,304.63,3,305.26,4.5,305.26z
	 M360.87,53.44c0.29-3.31-1.2-4.59-4.23-5.52c-51.61-15.8-103.18-31.73-154.8-47.49c-2.19-0.67-4.96-0.51-7.19,0.15
	c-16.39,4.89-32.71,10.01-49.05,15.07c-34.59,10.7-69.19,21.39-103.76,32.18c-1.68,0.53-4.18,1.86-4.36,3.12
	c-0.58,3.82-0.21,7.78-0.21,12.14c2.56-0.73,4.29-1.19,6.01-1.71C93.49,46.11,143.69,30.8,193.95,15.65
	c2.67-0.8,5.98-0.97,8.61-0.18c36.76,10.99,73.45,22.22,110.16,33.35c15.69,4.76,31.42,9.43,48.1,14.43
	C360.81,59.38,360.61,56.39,360.87,53.44z M378.72,280.73c0-2.68-0.23-5.01,0.05-7.28c0.52-4.26-1.3-5.8-5.36-5.27
	c-0.82,0.11-1.66,0.01-2.5,0.01c-114.11,0-228.22,0-342.33,0c-11.12,0-11.12,0-10.11,11.29c0.03,0.31,0.25,0.59,0.53,1.24
	C138.88,280.73,258.57,280.73,378.72,280.73z M37.63,75.8c0,4.17,0,8.02,0,11.92c107.79,0,215.14,0,322.84,0c0-4.03,0-7.76,0-11.92
	C252.56,75.8,145.21,75.8,37.63,75.8z M44.52,258.12c102.99,0,205.97,0,308.96,0c1.5,0,3.04,0.18,4.49-0.1
	c0.96-0.18,2.3-0.82,2.62-1.6c2.77-6.69-0.35-11.21-7.61-11.21c-101.82,0-203.64,0-305.46,0c-11.55,0-11.55,0-10.04,11.74
	c0.02,0.15,0.16,0.27,0.72,1.18C40.23,258.12,42.37,258.12,44.52,258.12z M324.21,61.97c-41.19-12.89-82.38-25.78-123.6-38.56
	c-1.58-0.49-3.59-0.29-5.22,0.21c-40.63,12.5-81.23,25.08-121.83,37.65c-1.31,0.4-2.58,0.91-3.87,1.38
	c9.16,0.74,18.15,0.95,27.12,0.65c4.42-0.15,8.95-0.76,13.18-2.02c28.17-8.39,56.25-17.06,84.42-25.44
	c2.51-0.75,5.64-0.69,8.16,0.07c24.65,7.42,49.21,15.11,73.83,22.61c6.02,1.83,12.09,4.19,18.26,4.65
	c10.26,0.77,20.62,0.21,32.41,0.21C325.34,62.52,324.8,62.16,324.21,61.97z M130.65,95.04c-2.32,0-4.19,0-6.57,0
	c0,20.04,0,39.64,0,59.25c-0.29,0.01-0.58,0.02-0.86,0.03c-1.81-19.87-3.62-39.75-5.45-59.9c-4.11,0.88-8.94-2.33-8.92,4.76
	c0.13,44.5,0.1,89,0.03,133.49c-0.01,4.51,2,4.92,6.03,3.69c0-26.49,0-52.87,0-79.25c0.46-0.03,0.91-0.06,1.37-0.09
	c2.75,26.51,5.5,53.02,8.28,79.73c2.13,0,3.89,0,6.12,0C130.65,189.14,130.65,142.08,130.65,95.04z M55.18,101.31
	c0,31.5,0,62.99,0,94.49c0,10.33,0.04,20.66,0.05,30.99c0.01,4.74,2.35,7.8,6.74,9.4c8.27,3.02,15.66-2.04,15.67-10.96
	c0.05-42.33,0.03-84.65,0.01-126.98c0-1.11-0.26-2.22-0.41-3.33c-2.71,0-5.12,0-8.06,0c0,2.47,0,4.59,0,6.72
	c0.03,40.16,0.07,80.32,0.09,120.48c0,1.5,0.31,3.15-0.22,4.45c-0.47,1.14-1.8,2.35-2.97,2.62c-0.66,0.15-2.26-1.38-2.53-2.4
	c-0.5-1.89-0.44-3.95-0.44-5.94c-0.02-39.99-0.01-79.99-0.02-119.98c0-6.82-0.03-6.82-7.91-5.75
	C55.18,97.36,55.18,99.34,55.18,101.31z M341.71,106.5c-0.01-7.02-4.72-11.92-11.29-11.88c-6.52,0.04-11.12,4.97-11.12,12.07
	c-0.02,39.13-0.02,78.27,0,117.4c0,7.79,3.77,11.94,10.75,12.01c7.74,0.07,11.65-3.99,11.66-12.19c0.02-19.48,0.01-38.97,0-58.45
	C341.72,145.8,341.73,126.15,341.71,106.5z M326.73,109.31c0-1.5-0.34-3.24,0.3-4.42c0.67-1.21,2.29-2.44,3.6-2.57
	c0.94-0.09,2.4,1.45,2.98,2.59c0.55,1.09,0.3,2.6,0.3,3.93c0,37.33,0.03,74.66-0.07,111.99c-0.01,2.85,1.44,7.38-3.28,7.53
	c-5.16,0.17-3.78-4.52-3.8-7.57c-0.1-18.5-0.05-37-0.05-55.5C326.72,146.64,326.71,127.97,326.73,109.31z M280.18,196.54
	c0,9,0.18,18-0.15,26.99c-0.07,1.97-1.82,5.37-3.11,5.52c-3.5,0.43-3.25-2.8-3.25-5.33c0.01-38.66,0.01-77.31,0.01-115.97
	c0-2.51-0.33-5.72,3.28-5.25c1.27,0.16,2.99,3.27,3.07,5.1c0.35,7.82,0.23,15.66,0.12,23.49c-0.04,2.79,0.56,4.35,3.82,4.34
	c3.18-0.01,3.93-1.4,3.89-4.27c-0.12-8.83,0.11-17.67-0.18-26.49c-0.07-2.1-1.14-4.59-2.57-6.14c-3.25-3.53-7.35-5.01-12.19-3.06
	c-5,2.02-7.56,5.77-7.57,11.69c-0.02,38.99-0.03,77.98,0.02,116.96c0,1.96,0.28,4.01,0.88,5.87c1.57,4.86,6.91,7.73,12.43,6.95
	c5.4-0.77,9.05-4.66,9.09-10.12c0.1-11.16,0.03-22.33,0-33.49c0-0.78-0.3-1.56-0.48-2.42c-2.33,0-4.41,0-7.12,0
	C280.18,192.97,280.18,194.76,280.18,196.54z M213.14,228.61c0.11,5.1,4.81,8.42,10.58,8.38c6.05-0.04,10.78-3.76,10.85-9.42
	c0.25-20.76,1.34-41.6-5.42-61.78c-6.27-18.71-10.9-37.72-8.95-57.69c0.2-2.04,2.01-3.92,3.08-5.88c0.97,1.99,2.68,3.95,2.76,5.98
	c0.34,7.81,0.24,15.65,0.12,23.48c-0.05,2.93,1.25,3.76,3.91,3.7c2.32-0.05,3.79-0.55,3.76-3.34c-0.09-9.49,0.11-18.99-0.11-28.48
	c-0.11-4.77-5.11-8.79-10.36-8.94c-5.02-0.14-10.18,3.54-10.19,8.28c-0.02,11.96-0.45,24.05,1.16,35.83
	c1.56,11.43,5.15,22.63,8.42,33.77c5.05,17.26,4.28,34.89,3.93,52.5c-0.03,1.48-2.29,2.93-3.52,4.39c-1.01-1.49-2.75-2.91-2.89-4.48
	c-0.41-4.46-0.18-8.98-0.18-13.48c-0.01-6.77,0-13.54,0-20.54c-2.59,0-4.37,0-7.03,0C213.05,203.73,212.86,216.17,213.14,228.61z
	 M162.71,236.72c7.13,0,13.88,0,20.81,0c0-2.46,0-4.63,0-7.3c-4.11,0-7.7,0-11.37,0c0-21.71,0-42.91,0-64.18
	c3.03-0.21,5.63-0.39,8.29-0.57c0-2.43,0-4.5,0-6.79c-2.93-0.18-5.52-0.35-7.93-0.5c-0.32-0.61-0.61-0.89-0.61-1.18
	c-0.07-17.16-0.19-34.32-0.01-51.47c0.01-1.12,2.27-2.96,3.68-3.18c5.87-0.92,6.08-1,4.27-6.74c-5.59,0-11.2,0-17.14,0
	C162.71,142.44,162.71,189.5,162.71,236.72z"/>
</svg>
